HIERARCHY
ROOT Hips
{
	OFFSET 0.00000 0.00000 0.00000
	CHANNELS 6 Xposition Yposition Zposition Zrotation Yrotation Xrotation 
	JOINT LHipJoint
	{
		OFFSET 0 0 0
		CHANNELS 3 Zrotation Yrotation Xrotation
		JOINT LeftUpLeg
		{
			OFFSET 1.48831 -1.59570 0.95625
			CHANNELS 3 Zrotation Yrotation Xrotation
			JOINT LeftLeg
			{
				OFFSET 2.20856 -6.06797 0.00000
				CHANNELS 3 Zrotation Yrotation Xrotation
				JOINT LeftFoot
				{
					OFFSET 2.62924 -7.22379 0.00000
					CHANNELS 3 Zrotation Yrotation Xrotation
					JOINT LeftToeBase
					{
						OFFSET 0.16802 -0.46163 2.41673
						CHANNELS 3 Zrotation Yrotation Xrotation
						End Site
						{
							OFFSET 0.00000 -0.00000 1.23760
						}
					}
				}
			}
		}
	}
	JOINT RHipJoint
	{
		OFFSET 0 0 0
		CHANNELS 3 Zrotation Yrotation Xrotation
		JOINT RightUpLeg
		{
			OFFSET -1.56796 -1.59570 0.95625
			CHANNELS 3 Zrotation Yrotation Xrotation
			JOINT RightLeg
			{
				OFFSET -2.29239 -6.29829 0.00000
				CHANNELS 3 Zrotation Yrotation Xrotation
				JOINT RightFoot
				{
					OFFSET -2.66963 -7.33475 0.00000
					CHANNELS 3 Zrotation Yrotation Xrotation
					JOINT RightToeBase
					{
						OFFSET -0.18185 -0.49964 2.34359
						CHANNELS 3 Zrotation Yrotation Xrotation
						End Site
						{
							OFFSET -0.00000 -0.00000 1.20477
						}
					}
				}
			}
		}
	}
	JOINT LowerBack
	{
		OFFSET 0 0 0
		CHANNELS 3 Zrotation Yrotation Xrotation
		JOINT Spine
		{
			OFFSET 0.03505 2.15832 -0.34324
			CHANNELS 3 Zrotation Yrotation Xrotation
			JOINT Spine1
			{
				OFFSET -0.01089 2.17963 0.04689
				CHANNELS 3 Zrotation Yrotation Xrotation
				JOINT Neck
				{
					OFFSET 0 0 0
					CHANNELS 3 Zrotation Yrotation Xrotation
					JOINT Neck1
					{
						OFFSET 0.04686 1.69404 0.22159
						CHANNELS 3 Zrotation Yrotation Xrotation
						JOINT Head
						{
							OFFSET 0.00265 1.69305 -0.01513
							CHANNELS 3 Zrotation Yrotation Xrotation
							End Site
							{
								OFFSET -0.00415 1.80215 -0.03034
							}
						}
					}
				}
				JOINT LeftShoulder
				{
					OFFSET 0 0 0
					CHANNELS 3 Zrotation Yrotation Xrotation
					JOINT LeftArm
					{
						OFFSET 3.67184 1.11724 -0.19002
						CHANNELS 3 Zrotation Yrotation Xrotation
						JOINT LeftForeArm
						{
							OFFSET 5.17714 -0.00000 -0.00000
							CHANNELS 3 Zrotation Yrotation Xrotation
							JOINT LeftHand
							{
								OFFSET 3.43679 -0.00000 -0.00000
								CHANNELS 3 Zrotation Yrotation Xrotation
								JOINT LeftFingerBase
								{
									OFFSET 0 0 0
									CHANNELS 3 Zrotation Yrotation Xrotation
									JOINT LeftHandIndex1
									{
										OFFSET 0.57312 -0.00000 -0.00000
										CHANNELS 3 Zrotation Yrotation Xrotation
										End Site
										{
											OFFSET 0.46206 -0.00000 -0.00000
										}
									}
								}
								JOINT LThumb
								{
									OFFSET 0 0 0
									CHANNELS 3 Zrotation Yrotation Xrotation
									End Site
									{
										OFFSET 0.46912 -0.00000 0.46912
									}
								}
							}
						}
					}
				}
				JOINT RightShoulder
				{
					OFFSET 0 0 0
					CHANNELS 3 Zrotation Yrotation Xrotation
					JOINT RightArm
					{
						OFFSET -3.59596 0.95831 -0.26050
						CHANNELS 3 Zrotation Yrotation Xrotation
						JOINT RightForeArm
						{
							OFFSET -5.23908 -0.00000 -0.00000
							CHANNELS 3 Zrotation Yrotation Xrotation
							JOINT RightHand
							{
								OFFSET -3.46485 -0.00000 -0.00000
								CHANNELS 3 Zrotation Yrotation Xrotation
								JOINT RightFingerBase
								{
									OFFSET 0 0 0
									CHANNELS 3 Zrotation Yrotation Xrotation
									JOINT RightHandIndex1
									{
										OFFSET -0.60875 -0.00000 -0.00000
										CHANNELS 3 Zrotation Yrotation Xrotation
										End Site
										{
											OFFSET -0.49079 -0.00000 -0.00000
										}
									}
								}
								JOINT RThumb
								{
									OFFSET 0 0 0
									CHANNELS 3 Zrotation Yrotation Xrotation
									End Site
									{
										OFFSET -0.49829 -0.00000 0.49829
									}
								}
							}
						}
					}
				}
			}
		}
	}
}
MOTION
Frames: 15
Frame Time: .0083333
50.4925 15.8318 19.2554 0 0 0 0 0 0 -21 0 0 0 0 0 0 0 0 0 0 0 0 0 0 21 0 0 0 0 0 0 0 0 0 0 0 0 0 0 0 0 0 0 0 0 0 0 -16 0 0 21 0 0 11 0 0 0 -8 0 0 0 0 0 0 0 0 0 0 0 0 0 0 0 0 0 0 0 0 8 0 0 0 0 0 0 0 0 0 0 0 0 0 0 0 0 0
50.4925 15.8318 19.2554 -177.5590 -43.6958 173.1250 0.0000 0.0000 0.0000 -18.0107 12.5531 -6.2412 2.0840 9.0388 25.9169 1.3193 2.9540 -22.9398 0.0033 -0.3710 -1.0194 0.0000 0.0000 0.0000 17.2810 2.6525 -18.0150 -6.7639 -15.1298 47.9758 -1.3965 -1.4811 -22.9097 -0.3899 4.0098 -11.1042 -0.8418 0.7220 10.0587 -1.6610 0.4894 5.4905 -1.2908 0.0878 0.0692 2.5324 0.1767 -8.1093 -1.2503 -0.1643 14.8289 -0.8330 -0.1287 5.8138 -0.0000 0.0000 0.0000 -82.7528 -1.6316 14.9064 13.7273 -22.3435 -2.7236 -0.0000 0.0000 -20.5922 17.8160 11.0781 3.5336 -7.1250 0.0000 -0.0000 -8.2793 41.4582 0.7289 -0.0000 0.0000 0.0000 91.9279 -2.1669 15.9651 -24.7374 35.9344 -8.1353 0.0000 -0.0000 -0.9285 -14.3886 -6.0461 1.5478 7.1250 -0.0000 -0.0000 10.3322 -36.0545 2.3026
50.4946 15.8328 19.2453 -177.4450 -43.6504 172.9730 0.0000 0.0000 0.0000 -17.8826 12.4982 -6.0865 2.0825 9.0358 25.9073 1.3248 2.9952 -23.0046 0.0023 -0.3103 -0.8526 0.0000 0.0000 0.0000 17.3602 2.6718 -17.8711 -6.7614 -15.1277 47.9662 -1.4101 -1.8743 -23.1813 -0.2935 3.4840 -9.6292 -0.7644 0.7287 10.0333 -1.6631 0.5028 5.5348 -1.3375 0.0947 0.1303 2.5709 0.2310 -8.2007 -1.3638 -0.0874 15.0347 -0.8709 -0.0997 5.8955 0.0000 -0.0000 0.0000 -82.6859 -1.6734 14.7947 13.6912 -22.2915 -2.7099 -0.0000 0.0000 -20.4499 17.7127 11.5004 3.6435 -7.1250 0.0000 -0.0000 -8.4514 41.8847 0.6547 0.0000 -0.0000 0.0000 91.9674 -2.3681 16.2249 -25.1757 36.3830 -8.3939 0.0000 -0.0000 -0.8877 -14.1033 -6.0093 1.5067 7.1250 -0.0000 -0.0000 10.5623 -36.0018 2.3691
50.4980 15.8335 19.2359 -177.3010 -43.7177 172.7880 0.0000 0.0000 0.0000 -17.7075 12.5435 -6.0002 2.0838 9.0386 25.9160 1.3165 3.0137 -22.9459 0.0055 -0.4773 -1.3114 0.0000 0.0000 0.0000 17.4490 2.6303 -17.6500 -6.7420 -15.1107 47.8917 -1.4416 -2.0126 -23.4889 -0.1957 2.8488 -7.8580 -0.6118 0.7491 10.0135 -1.7086 0.5370 5.6146 -1.4734 0.1130 0.2270 2.7927 0.2495 -8.4477 -1.5459 -0.0780 15.3258 -0.9666 -0.0981 6.0299 0.0000 0.0000 0.0000 -82.4803 -1.8064 14.9272 13.6703 -22.2614 -2.7020 -0.0000 0.0000 -20.4535 17.8437 11.1298 3.5557 -7.1250 0.0000 -0.0000 -8.2647 41.5143 0.7160 0.0000 0.0000 0.0000 92.1591 -2.4630 16.2115 -25.5642 36.7751 -8.6254 0.0000 -0.0000 -0.8302 -13.9054 -6.0295 1.4897 7.1250 -0.0000 -0.0000 10.7289 -36.0115 2.4050
50.5016 15.8328 19.2243 -177.2410 -43.6907 172.6840 0.0000 0.0000 0.0000 -17.6151 12.4624 -5.8634 2.0849 9.0408 25.9231 1.3209 3.1052 -23.0259 0.0054 -0.4729 -1.2996 0.0000 0.0000 0.0000 17.5204 2.6616 -17.4890 -6.7169 -15.0888 47.7953 -1.4145 -2.5527 -23.5137 -0.1765 2.7065 -7.4627 -0.5823 0.7186 10.0066 -1.6867 0.5005 5.6097 -1.4637 0.0956 0.2250 2.6737 0.2928 -8.3939 -1.5208 -0.0123 15.4602 -0.9350 -0.0739 6.0643 0.0000 -0.0000 0.0000 -82.4851 -1.7827 14.7402 13.6736 -22.2662 -2.7032 -0.0000 0.0000 -20.3990 17.8460 11.2528 3.5949 -7.1250 0.0000 -0.0000 -8.2861 41.6417 0.6917 0.0000 -0.0000 0.0000 92.1155 -2.6738 16.5393 -25.9455 37.1548 -8.8547 0.0000 -0.0000 -0.8682 -13.7124 -6.1621 1.5003 7.1250 -0.0000 -0.0000 10.9099 -36.1349 2.4134
50.5045 15.8325 19.2125 -177.1490 -43.6839 172.5590 0.0000 0.0000 0.0000 -17.4954 12.4040 -5.7462 2.0875 9.0461 25.9396 1.3230 3.1758 -23.0781 0.0061 -0.5027 -1.3814 0.0000 0.0000 0.0000 17.6032 2.6844 -17.2946 -6.6844 -15.0603 47.6704 -1.4015 -2.9046 -23.5743 -0.1356 2.3734 -6.5388 -0.5165 0.7088 9.9866 -1.6770 0.4931 5.6250 -1.4899 0.0931 0.2522 2.6664 0.3303 -8.4578 -1.5795 0.0397 15.6691 -0.9499 -0.0563 6.1425 0.0000 -0.0000 0.0000 -82.4402 -1.8030 14.6449 13.6688 -22.2593 -2.7014 -0.0000 0.0000 -20.3487 17.8369 11.3151 3.6125 -7.1250 0.0000 -0.0000 -8.3060 41.7051 0.6803 0.0000 -0.0000 0.0000 92.1322 -2.8512 16.7505 -26.3301 37.5328 -9.0880 0.0000 -0.0000 -0.8679 -13.5063 -6.2180 1.4903 7.1250 -0.0000 -0.0000 11.0894 -36.1799 2.4419
50.5073 15.8320 19.1997 -177.0620 -43.6742 172.4500 0.0000 0.0000 0.0000 -17.3806 12.3296 -5.6377 2.0907 9.0524 25.9594 1.3262 3.2527 -23.1415 0.0067 -0.5267 -1.4473 0.0000 0.0000 0.0000 17.6903 2.7259 -17.0914 -6.6412 -15.0221 47.5038 -1.3741 -3.2390 -23.5184 -0.1057 2.0963 -5.7720 -0.4548 0.6979 9.9542 -1.6601 0.4855 5.6290 -1.5062 0.0908 0.2744 2.6350 0.3651 -8.5137 -1.6182 0.0886 15.8765 -0.9548 -0.0405 6.2188 -0.0000 -0.0000 0.0000 -82.4099 -1.8140 14.5595 13.6696 -22.2604 -2.7017 -0.0000 0.0000 -20.3261 17.8292 11.3398 3.6186 -7.1250 0.0000 -0.0000 -8.3176 41.7300 0.6761 -0.0000 -0.0000 0.0000 92.1319 -3.0244 16.9576 -26.7026 37.8941 -9.3159 0.0000 -0.0000 -0.8773 -13.2874 -6.2687 1.4771 7.1250 -0.0000 -0.0000 11.2789 -36.2188 2.4741
50.5097 15.8317 19.1856 -176.9730 -43.6705 172.3650 0.0000 0.0000 0.0000 -17.2662 12.2393 -5.5545 2.0952 9.0617 25.9886 1.3311 3.3150 -23.2116 0.0069 -0.5383 -1.4791 0.0000 0.0000 0.0000 17.7851 2.7841 -16.8973 -6.5893 -14.9760 47.3032 -1.3305 -3.5576 -23.3285 -0.0849 1.8793 -5.1722 -0.3862 0.6854 9.8919 -1.6412 0.4783 5.6224 -1.5240 0.0897 0.3019 2.5940 0.3940 -8.5710 -1.6416 0.1283 16.0884 -0.9539 -0.0287 6.2967 -0.0000 0.0000 0.0000 -82.3877 -1.8145 14.4803 13.6801 -22.2756 -2.7057 -0.0000 0.0000 -20.3227 17.8168 11.3528 3.6200 -7.1250 0.0000 -0.0000 -8.3309 41.7423 0.6747 -0.0000 0.0000 0.0000 92.1286 -3.1907 17.1479 -27.0639 38.2401 -9.5386 0.0000 -0.0000 -0.8850 -13.0654 -6.3118 1.4615 7.1250 -0.0000 -0.0000 11.4697 -36.2497 2.5085
50.5122 15.8316 19.1702 -176.8830 -43.6682 172.3090 0.0000 0.0000 0.0000 -17.1514 12.1423 -5.5118 2.1016 9.0745 26.0288 1.3368 3.3621 -23.2810 0.0071 -0.5438 -1.4943 0.0000 0.0000 0.0000 17.8884 2.8731 -16.7111 -6.5273 -14.9206 47.0631 -1.2811 -3.7815 -23.0441 -0.0684 1.6876 -4.6431 -0.3061 0.6803 9.7938 -1.6263 0.4838 5.6055 -1.5533 0.0958 0.3387 2.5668 0.4129 -8.6346 -1.6631 0.1518 16.3043 -0.9561 -0.0240 6.3769 0.0000 -0.0000 0.0000 -82.3579 -1.8140 14.4350 13.6992 -22.3030 -2.7129 -0.0000 0.0000 -20.3436 17.8089 11.3211 3.6084 -7.1250 0.0000 -0.0000 -8.3318 41.7087 0.6817 0.0000 -0.0000 0.0000 92.1408 -3.3466 17.3000 -27.4185 38.5754 -9.7590 0.0000 -0.0000 -0.8980 -12.8279 -6.3454 1.4416 7.1250 -0.0000 -0.0000 11.6716 -36.2700 2.5483
50.5152 15.8316 19.1538 -176.7890 -43.6781 172.2810 0.0000 0.0000 0.0000 -17.0331 12.0452 -5.5110 2.1100 9.0916 26.0821 1.3425 3.3835 -23.3378 0.0073 -0.5524 -1.5178 0.0000 0.0000 0.0000 18.0002 2.9778 -16.5339 -6.4563 -14.8564 46.7868 -1.2348 -3.9013 -22.7260 -0.0552 1.5161 -4.1701 -0.2134 0.6777 9.6622 -1.6168 0.4950 5.5805 -1.5957 0.1059 0.3857 2.5488 0.4233 -8.6986 -1.6739 0.1608 16.5149 -0.9574 -0.0248 6.4553 -0.0000 -0.0000 0.0000 -82.3127 -1.8135 14.4445 13.7246 -22.3397 -2.7226 -0.0000 0.0000 -20.4177 17.8162 11.2377 3.5837 -7.1250 0.0000 -0.0000 -8.3094 41.6232 0.6975 -0.0000 -0.0000 0.0000 92.1690 -3.4938 17.4251 -27.7698 38.9034 -9.9788 0.0000 -0.0000 -0.9200 -12.5702 -6.3823 1.4199 7.1250 -0.0000 -0.0000 11.8909 -36.2923 2.5913
50.5186 15.8314 19.1364 -176.7020 -43.6866 172.2790 0.0000 0.0000 0.0000 -16.9162 11.9574 -5.5465 2.1205 9.1127 26.1484 1.3488 3.3773 -23.3846 0.0073 -0.5513 -1.5150 0.0000 0.0000 0.0000 18.1173 3.0991 -16.3653 -6.3796 -14.7864 46.4868 -1.1972 -3.9470 -22.4366 -0.0472 1.4020 -3.8558 -0.1097 0.6836 9.5102 -1.6188 0.5191 5.5459 -1.6569 0.1233 0.4347 2.5553 0.4221 -8.7627 -1.6875 0.1508 16.7214 -0.9653 -0.0335 6.5321 -0.0000 0.0000 0.0000 -82.2469 -1.8096 14.4993 13.7588 -22.3889 -2.7356 -0.0000 0.0000 -20.5293 17.8188 11.1740 3.5643 -7.1250 0.0000 -0.0000 -8.2950 41.5576 0.7098 -0.0000 0.0000 0.0000 92.2228 -3.6315 17.5184 -28.1126 39.2197 -10.1948 0.0000 -0.0000 -0.9448 -12.3066 -6.4369 1.4010 7.1250 -0.0000 -0.0000 12.1182 -36.3320 2.6306
50.5225 15.8308 19.1179 -176.6180 -43.7045 172.2910 0.0000 0.0000 0.0000 -16.7963 11.8767 -5.6050 2.1330 9.1378 26.2273 1.3548 3.3509 -23.4194 0.0073 -0.5532 -1.5203 0.0000 0.0000 0.0000 18.2411 3.2199 -16.1907 -6.3000 -14.7129 46.1743 -1.1793 -3.8891 -22.2536 -0.0400 1.2910 -3.5499 -0.0064 0.6870 9.3413 -1.6195 0.5404 5.5077 -1.7162 0.1396 0.4893 2.5742 0.4215 -8.8366 -1.7176 0.1425 16.9313 -0.9805 -0.0420 6.6119 -0.0000 0.0000 0.0000 -82.1866 -1.8085 14.5493 13.7971 -22.4439 -2.7502 -0.0000 0.0000 -20.6508 17.8123 11.1674 3.5608 -7.1250 0.0000 -0.0000 -8.2994 41.5503 0.7117 -0.0000 0.0000 0.0000 92.2742 -3.7606 17.6187 -28.4488 39.5261 -10.4081 0.0000 -0.0000 -0.9764 -12.0557 -6.5017 1.3853 7.1250 -0.0000 -0.0000 12.3369 -36.3822 2.6645
50.5264 15.8296 19.0988 -176.5420 -43.7144 172.3050 0.0000 0.0000 0.0000 -16.6775 11.8036 -5.6666 2.1472 9.1663 26.3169 1.3614 3.3212 -23.4574 0.0074 -0.5571 -1.5308 0.0000 0.0000 0.0000 18.3707 3.3333 -16.0061 -6.2217 -14.6398 45.8652 -1.1771 -3.7968 -22.1856 -0.0366 1.2350 -3.3958 0.0926 0.6942 9.1704 -1.6161 0.5661 5.4702 -1.7691 0.1579 0.5458 2.5977 0.4212 -8.9194 -1.7608 0.1364 17.1358 -1.0005 -0.0501 6.6918 -0.0000 0.0000 0.0000 -82.1412 -1.8089 14.5889 13.8391 -22.5042 -2.7662 -0.0000 0.0000 -20.7682 17.8038 11.2106 3.5726 -7.1250 0.0000 -0.0000 -8.3152 41.5941 0.7040 -0.0000 0.0000 0.0000 92.3146 -3.8723 17.7270 -28.7675 39.8133 -10.6116 0.0000 -0.0000 -1.0058 -11.8265 -6.5763 1.3737 7.1250 -0.0000 -0.0000 12.5397 -36.4434 2.6908
50.5309 15.8284 19.0791 -176.4680 -43.7270 172.3180 0.0000 0.0000 0.0000 -16.5557 11.7383 -5.7326 2.1632 9.1981 26.4170 1.3679 3.2885 -23.4935 0.0079 -0.5733 -1.5753 0.0000 0.0000 0.0000 18.5090 3.4241 -15.8155 -6.1467 -14.5690 45.5676 -1.1875 -3.7035 -22.2246 -0.0364 1.2322 -3.3879 0.1829 0.6921 9.0085 -1.6018 0.5786 5.4291 -1.8046 0.1693 0.5931 2.6021 0.4297 -8.9971 -1.8073 0.1466 17.3271 -1.0170 -0.0517 6.7671 0.0000 -0.0000 0.0000 -82.1269 -1.7977 14.5859 13.8864 -22.5721 -2.7844 -0.0000 0.0000 -20.8716 17.7933 11.3005 3.5985 -7.1250 0.0000 -0.0000 -8.3416 41.6859 0.6872 0.0000 -0.0000 0.0000 92.3294 -3.9620 17.8613 -29.0538 40.0685 -10.7954 0.0000 -0.0000 -1.0119 -11.6570 -6.6418 1.3669 7.1250 -0.0000 -0.0000 12.6917 -36.4987 2.7072
50.5363 15.8271 19.0591 -176.3990 -43.7319 172.3370 0.0000 0.0000 0.0000 -16.4345 11.6730 -5.8082 2.1806 9.2326 26.5257 1.3748 3.2638 -23.5361 0.0086 -0.5987 -1.6451 0.0000 0.0000 0.0000 18.6553 3.5083 -15.6273 -6.0765 -14.5021 45.2881 -1.2076 -3.6134 -22.3469 -0.0372 1.2456 -3.4249 0.2529 0.6874 8.8516 -1.5709 0.5863 5.3826 -1.8113 0.1778 0.6316 2.5801 0.4427 -9.0531 -1.8543 0.1688 17.4879 -1.0280 -0.0491 6.8290 0.0000 -0.0000 0.0000 -82.1480 -1.7798 14.5537 13.9350 -22.6417 -2.8030 -0.0000 0.0000 -20.9649 17.7860 11.3838 3.6231 -7.1250 0.0000 -0.0000 -8.3640 41.7712 0.6714 0.0000 -0.0000 0.0000 92.3089 -4.0322 18.0245 -29.3106 40.2951 -10.9610 0.0000 -0.0000 -1.0014 -11.5122 -6.6810 1.3574 7.1250 -0.0000 -0.0000 12.8186 -36.5293 2.7256
